<svg width="72" height="75" viewBox="0 0 72 75" fill="none" xmlns="http://www.w3.org/2000/svg">
<ellipse cx="35.8944" cy="37.7593" rx="35.8944" ry="37.2407" fill="#00C3F9"/>
<g clip-path="url(#clip0_279_899)">
<path fill-rule="evenodd" clip-rule="evenodd" d="M29.1447 58.0988C29.3666 58.0988 29.5465 57.8971 29.5465 57.6483C29.5465 57.3995 29.3666 57.1978 29.1447 57.1978C28.9228 57.1978 28.743 57.3995 28.743 57.6483C28.743 57.8971 28.9228 58.0988 29.1447 58.0988ZM25.5288 57.6483C25.5288 55.409 27.1477 53.5938 29.1447 53.5938C31.1418 53.5938 32.7607 55.409 32.7607 57.6483C32.7607 59.8876 31.1418 61.7029 29.1447 61.7029C27.1477 61.7029 25.5288 59.8876 25.5288 57.6483Z" fill="white"/>
<path fill-rule="evenodd" clip-rule="evenodd" d="M46.8225 58.0988C47.0444 58.0988 47.2242 57.8971 47.2242 57.6483C47.2242 57.3995 47.0444 57.1978 46.8225 57.1978C46.6006 57.1978 46.4207 57.3995 46.4207 57.6483C46.4207 57.8971 46.6006 58.0988 46.8225 58.0988ZM43.2065 57.6483C43.2065 55.409 44.8254 53.5938 46.8225 53.5938C48.8195 53.5938 50.4384 55.409 50.4384 57.6483C50.4384 59.8876 48.8195 61.7029 46.8225 61.7029C44.8254 61.7029 43.2065 59.8876 43.2065 57.6483Z" fill="white"/>
<path fill-rule="evenodd" clip-rule="evenodd" d="M14.2793 21.61C14.2793 20.3659 15.1787 19.3574 16.2881 19.3574H22.7165C23.6739 19.3574 24.4983 20.1151 24.6862 21.1679L25.9714 28.3676H51.6439C52.2426 28.3676 52.8101 28.667 53.1917 29.1842C53.5733 29.7015 53.7293 30.3826 53.6172 31.0421L51.043 46.178C50.8042 47.5261 50.15 48.7372 49.1952 49.5991C48.2459 50.456 47.0595 50.9135 45.8414 50.8929H30.2546C29.0365 50.9135 27.8501 50.456 26.9008 49.5991C25.9466 48.7377 25.2927 47.5276 25.0535 46.1804C25.0534 46.1796 25.0532 46.1788 25.0531 46.178L22.3708 31.1512C22.3585 31.094 22.3482 31.0361 22.3398 30.9773L21.0698 23.8625H16.2881C15.1787 23.8625 14.2793 22.854 14.2793 21.61ZM26.7755 32.8726L28.9938 45.3003C29.0489 45.6114 29.1998 45.8909 29.4202 46.0898C29.6406 46.2887 29.9163 46.3944 30.1991 46.3883L30.2376 46.3879H45.8584L45.8969 46.3883C46.1797 46.3944 46.4555 46.2887 46.6758 46.0898C46.8946 45.8923 47.045 45.6153 47.101 45.3069L49.2157 32.8726H26.7755Z" fill="white"/>
</g>
<defs>
<clipPath id="clip0_279_899">
<rect width="42.9529" height="48.1633" fill="white" transform="translate(13.4893 12.4258)"/>
</clipPath>
</defs>
</svg>
