<svg width="48" height="47" viewBox="0 0 48 47" fill="none" xmlns="http://www.w3.org/2000/svg">
<rect x="0.581055" y="0.286621" width="46.5812" height="46.5812" rx="23.2906" fill="#EFF2F7"/>
<path fill-rule="evenodd" clip-rule="evenodd" d="M21.8149 12.578C22.3274 12.2827 22.9085 12.1272 23.5 12.1272C24.0915 12.1272 24.6727 12.2827 25.1852 12.578C25.1859 12.5785 25.1867 12.5789 25.1875 12.5794L33.0625 17.0794C33.5751 17.3753 34.0008 17.8008 34.297 18.3132C34.5932 18.8256 34.7494 19.4069 34.75 19.9987V29.001C34.7494 29.5929 34.5932 30.1742 34.297 30.6866C34.0008 31.199 33.5751 31.6245 33.0625 31.9204L33.0582 31.9229L25.1875 36.4204C25.1868 36.4208 25.1862 36.4212 25.1855 36.4216C24.6729 36.717 24.0917 36.8726 23.5 36.8726C22.9084 36.8726 22.3271 36.7171 21.8146 36.4216C21.8139 36.4212 21.8132 36.4208 21.8125 36.4204L13.9418 31.9229L13.9375 31.9204C13.4249 31.6245 12.9992 31.199 12.703 30.6866C12.4068 30.1742 12.2506 29.5929 12.25 29.001V19.9987C12.2506 19.4069 12.4068 18.8256 12.703 18.3132C12.9992 17.8008 13.4249 17.3753 13.9375 17.0794L13.9418 17.0769L21.8149 12.578ZM23.5 14.3772C23.3025 14.3772 23.1085 14.4292 22.9375 14.5279L22.9332 14.5304L15.0625 19.0279C15.0619 19.0283 15.0613 19.0286 15.0607 19.0289C14.8907 19.1275 14.7494 19.269 14.651 19.4392C14.5524 19.6099 14.5003 19.8034 14.5 20.0006V28.9992C14.5003 29.1963 14.5524 29.3899 14.651 29.5606C14.7494 29.7308 14.8907 29.8722 15.0607 29.9708C15.0613 29.9712 15.0619 29.9715 15.0625 29.9719L22.9375 34.4719C23.1085 34.5706 23.3025 34.6226 23.5 34.6226C23.6975 34.6226 23.8915 34.5706 24.0625 34.4719L24.0668 34.4694L31.9375 29.9719C31.9381 29.9715 31.9387 29.9712 31.9393 29.9708C32.1093 29.8722 32.2506 29.7308 32.349 29.5606C32.4477 29.3898 32.4998 29.196 32.5 28.9987V20.001C32.4998 19.8038 32.4477 19.61 32.349 19.4392C32.2506 19.269 32.1093 19.1275 31.9393 19.029C31.9387 19.0286 31.9381 19.0283 31.9375 19.0279L24.0625 14.5279C23.8915 14.4292 23.6975 14.3772 23.5 14.3772Z" fill="#3C50E0"/>
<path fill-rule="evenodd" clip-rule="evenodd" d="M12.7048 18.2667C13.016 17.7289 13.7041 17.5451 14.242 17.8562L23.4999 23.2116L32.7578 17.8562C33.2957 17.5451 33.9839 17.7289 34.295 18.2667C34.6061 18.8045 34.4223 19.4927 33.8845 19.8038L24.0632 25.4851C23.7147 25.6867 23.2851 25.6867 22.9366 25.4851L13.1153 19.8038C12.5775 19.4927 12.3937 18.8045 12.7048 18.2667Z" fill="#3C50E0"/>
<path fill-rule="evenodd" clip-rule="evenodd" d="M23.5 23.375C24.1213 23.375 24.625 23.8787 24.625 24.5V35.84C24.625 36.4613 24.1213 36.965 23.5 36.965C22.8787 36.965 22.375 36.4613 22.375 35.84V24.5C22.375 23.8787 22.8787 23.375 23.5 23.375Z" fill="#3C50E0"/>
</svg>
