<svg width="19" height="19" viewBox="0 0 19 19" fill="none" xmlns="http://www.w3.org/2000/svg">
<path fill-rule="evenodd" clip-rule="evenodd" d="M8.31421 1.11042C8.67484 0.902609 9.08376 0.793213 9.50001 0.793213C9.91627 0.793213 10.3252 0.902618 10.6859 1.11045C10.6864 1.11077 10.687 1.11108 10.6875 1.1114L16.2292 4.27806C16.5899 4.48631 16.8894 4.78574 17.0979 5.14633C17.3063 5.50691 17.4162 5.91596 17.4167 6.33244V12.6674C17.4162 13.0839 17.3063 13.4929 17.0979 13.8535C16.8895 14.2141 16.5899 14.5135 16.2292 14.7218L16.2261 14.7235L10.6875 17.8884C10.687 17.8887 10.6866 17.889 10.6861 17.8893C10.3254 18.0972 9.91636 18.2066 9.50001 18.2066C9.08367 18.2066 8.67466 18.0972 8.31397 17.8893C8.31349 17.889 8.313 17.8887 8.31251 17.8884L2.7739 14.7235L2.77084 14.7218C2.41015 14.5135 2.11057 14.2141 1.90214 13.8535C1.69371 13.4929 1.58377 13.0839 1.58334 12.6674V6.33244C1.58377 5.91596 1.69371 5.50691 1.90214 5.14633C2.11057 4.78574 2.41016 4.48631 2.77084 4.27807L2.7739 4.27631L8.31421 1.11042ZM9.50001 2.37655C9.36104 2.37655 9.22452 2.41313 9.10418 2.48261L9.10112 2.48437L3.56251 5.64928C3.56209 5.64952 3.56168 5.64976 3.56126 5.65C3.44159 5.71938 3.34218 5.81892 3.27294 5.9387C3.20352 6.05879 3.16688 6.19502 3.16668 6.33373V12.6661C3.16688 12.8048 3.20352 12.9411 3.27294 13.0612C3.34218 13.1809 3.44159 13.2805 3.56126 13.3498C3.56168 13.3501 3.56209 13.3503 3.56251 13.3506L9.10418 16.5172C9.22453 16.5867 9.36104 16.6233 9.50001 16.6233C9.63897 16.6233 9.77549 16.5867 9.89584 16.5172L9.8989 16.5155L15.4375 13.3506C15.4379 13.3503 15.4383 13.3501 15.4388 13.3498C15.5584 13.2805 15.6578 13.1809 15.7271 13.0612C15.7966 12.941 15.8332 12.8046 15.8333 12.6658V6.33407C15.8332 6.19524 15.7966 6.05889 15.7271 5.9387C15.6578 5.81892 15.5584 5.71939 15.4388 5.65C15.4383 5.64976 15.4379 5.64952 15.4375 5.64928L9.89584 2.48262C9.77549 2.41313 9.63898 2.37655 9.50001 2.37655Z" fill="#637381"/>
<path fill-rule="evenodd" clip-rule="evenodd" d="M1.90349 5.11365C2.12242 4.73519 2.60671 4.60586 2.98517 4.82479L9.50001 8.5934L16.0149 4.82479C16.3933 4.60586 16.8776 4.73519 17.0965 5.11365C17.3155 5.49212 17.1861 5.9764 16.8077 6.19533L9.89642 10.1932C9.65119 10.3351 9.34884 10.3351 9.10361 10.1932L2.19236 6.19533C1.81389 5.9764 1.68456 5.49212 1.90349 5.11365Z" fill="#637381"/>
<path fill-rule="evenodd" clip-rule="evenodd" d="M9.50001 8.70825C9.93723 8.70825 10.2917 9.06269 10.2917 9.49992V17.4799C10.2917 17.9171 9.93723 18.2716 9.50001 18.2716C9.06278 18.2716 8.70834 17.9171 8.70834 17.4799V9.49992C8.70834 9.06269 9.06278 8.70825 9.50001 8.70825Z" fill="#637381"/>
</svg>
