<svg width="47" height="47" viewBox="0 0 47 47" fill="none" xmlns="http://www.w3.org/2000/svg">
<rect x="0.290363" y="0.286621" width="46.5812" height="46.5812" rx="23.2906" fill="#EFF2F7"/>
<path fill-rule="evenodd" clip-rule="evenodd" d="M21.0714 32.2057C21.1869 32.2057 21.2805 32.112 21.2805 31.9965C21.2805 31.881 21.1869 31.7874 21.0714 31.7874C20.9559 31.7874 20.8622 31.881 20.8622 31.9965C20.8622 32.112 20.9559 32.2057 21.0714 32.2057ZM19.1891 31.9965C19.1891 30.957 20.0318 30.1143 21.0714 30.1143C22.1109 30.1143 22.9536 30.957 22.9536 31.9965C22.9536 33.0361 22.1109 33.8788 21.0714 33.8788C20.0318 33.8788 19.1891 33.0361 19.1891 31.9965Z" fill="#3056D3"/>
<path fill-rule="evenodd" clip-rule="evenodd" d="M30.2735 32.2057C30.389 32.2057 30.4827 32.112 30.4827 31.9965C30.4827 31.881 30.389 31.7874 30.2735 31.7874C30.158 31.7874 30.0644 31.881 30.0644 31.9965C30.0644 32.112 30.158 32.2057 30.2735 32.2057ZM28.3913 31.9965C28.3913 30.957 29.234 30.1143 30.2735 30.1143C31.3131 30.1143 32.1558 30.957 32.1558 31.9965C32.1558 33.0361 31.3131 33.8788 30.2735 33.8788C29.234 33.8788 28.3913 33.0361 28.3913 31.9965Z" fill="#3056D3"/>
<path fill-rule="evenodd" clip-rule="evenodd" d="M13.3332 15.2662C13.3332 14.6886 13.8014 14.2205 14.3789 14.2205H17.7251C18.2235 14.2205 18.6527 14.5722 18.7505 15.0609L19.4195 18.4033H32.7832C33.0949 18.4033 33.3903 18.5423 33.5889 18.7824C33.7876 19.0225 33.8688 19.3387 33.8104 19.6448L32.4704 26.6714C32.3461 27.2973 32.0056 27.8595 31.5085 28.2596C31.0144 28.6574 30.3968 28.8698 29.7628 28.8603H21.6491C21.015 28.8698 20.3974 28.6574 19.9033 28.2596C19.4065 27.8597 19.0662 27.298 18.9417 26.6726C18.9416 26.6722 18.9415 26.6718 18.9415 26.6714L17.5452 19.6955C17.5388 19.669 17.5334 19.6421 17.5291 19.6148L16.868 16.3119H14.3789C13.8014 16.3119 13.3332 15.8437 13.3332 15.2662ZM19.8381 20.4947L20.9928 26.264C21.0215 26.4084 21.1 26.5381 21.2147 26.6305C21.3294 26.7228 21.473 26.7719 21.6202 26.769L21.6402 26.7689H29.7716L29.7916 26.769C29.9389 26.7719 30.0824 26.7228 30.1971 26.6305C30.311 26.5388 30.3893 26.4102 30.4184 26.267L31.5192 20.4947H19.8381Z" fill="#3056D3"/>
</svg>
