<svg width="48" height="47" viewBox="0 0 48 47" fill="none" xmlns="http://www.w3.org/2000/svg">
<rect x="0.581055" y="0.286621" width="46.5812" height="46.5812" rx="23.2906" fill="#EFF2F7"/>
<path d="M26.3433 30.0589H30.0492M30.0492 30.0589H33.7551M30.0492 30.0589V26.353M30.0492 30.0589V33.7648" stroke="#3C50E0" stroke-width="2.3217" stroke-linecap="round" stroke-linejoin="round"/>
<path d="M14 20.6706V14.7412C14 14.3318 14.3318 14 14.7412 14H20.6706C21.08 14 21.4118 14.3318 21.4118 14.7412V20.6706C21.4118 21.08 21.08 21.4118 20.6706 21.4118H14.7412C14.3318 21.4118 14 21.08 14 20.6706Z" stroke="#3C50E0" stroke-width="2.3217"/>
<path d="M14 33.0237V27.0942C14 26.6848 14.3318 26.353 14.7412 26.353H20.6706C21.08 26.353 21.4118 26.6848 21.4118 27.0942V33.0237C21.4118 33.433 21.08 33.7648 20.6706 33.7648H14.7412C14.3318 33.7648 14 33.433 14 33.0237Z" stroke="#3C50E0" stroke-width="2.3217"/>
<path d="M26.353 20.6706V14.7412C26.353 14.3318 26.6848 14 27.0942 14H33.0237C33.433 14 33.7648 14.3318 33.7648 14.7412V20.6706C33.7648 21.08 33.433 21.4118 33.0237 21.4118H27.0942C26.6848 21.4118 26.353 21.08 26.353 20.6706Z" stroke="#3C50E0" stroke-width="2.3217"/>
</svg>
