<svg width="27" height="28" viewBox="0 0 27 28" fill="none" xmlns="http://www.w3.org/2000/svg">
<path d="M9.92781 21.0089C9.80873 21.0089 9.70155 20.9846 9.58246 20.9358C9.24902 20.8017 9.03467 20.4604 9.03467 20.0947V12.7811C9.03467 12.2814 9.43956 11.8669 9.92781 11.8669C10.4161 11.8669 10.821 12.2814 10.821 12.7811V17.8885L11.6784 17.0108C12.0237 16.6574 12.5953 16.6574 12.9407 17.0108C13.286 17.3643 13.286 17.9494 12.9407 18.3029L10.559 20.7408C10.3922 20.9114 10.1541 21.0089 9.92781 21.0089Z" fill="white"/>
<path d="M9.92668 21.0088C9.70041 21.0088 9.47415 20.9235 9.29552 20.7407L6.9138 18.3028C6.56845 17.9493 6.56845 17.3642 6.9138 17.0107C7.25915 16.6572 7.83076 16.6572 8.17611 17.0107L10.5578 19.4486C10.9032 19.8021 10.9032 20.3872 10.5578 20.7407C10.3792 20.9235 10.1529 21.0088 9.92668 21.0088Z" fill="white"/>
<path d="M17.0726 27.1035H9.92742C3.46104 27.1035 0.698242 24.2756 0.698242 17.6568V10.3432C0.698242 3.72441 3.46104 0.896484 9.92742 0.896484H15.8817C16.37 0.896484 16.7749 1.31092 16.7749 1.81068C16.7749 2.31045 16.37 2.72488 15.8817 2.72488H9.92742C4.43755 2.72488 2.48453 4.72393 2.48453 10.3432V17.6568C2.48453 23.2761 4.43755 25.2751 9.92742 25.2751H17.0726C22.5625 25.2751 24.5155 23.2761 24.5155 17.6568V11.5621C24.5155 11.0624 24.9204 10.6479 25.4086 10.6479C25.8969 10.6479 26.3018 11.0624 26.3018 11.5621V17.6568C26.3018 24.2756 23.539 27.1035 17.0726 27.1035Z" fill="white"/>
<path d="M25.4088 12.4763H20.6454C16.5726 12.4763 14.9888 10.8551 14.9888 6.68633V1.81059C14.9888 1.44491 15.2031 1.10361 15.5366 0.96953C15.87 0.823258 16.2511 0.908583 16.5131 1.16456L26.04 10.916C26.29 11.172 26.3734 11.5743 26.2305 11.9156C26.0876 12.2569 25.7661 12.4763 25.4088 12.4763ZM16.7751 4.01686V6.68633C16.7751 9.83117 17.5729 10.6479 20.6454 10.6479H23.2533L16.7751 4.01686Z" fill="white"/>
</svg>
