<svg width="93" height="91" viewBox="0 0 93 91" fill="none" xmlns="http://www.w3.org/2000/svg">
<ellipse cx="46.4208" cy="45.5" rx="46.4208" ry="45.5" fill="#13C296"/>
<path d="M40.0863 43.1672C39.5998 42.6808 38.9401 42.4075 38.2521 42.4075C37.5642 42.4075 36.9044 42.6808 36.4179 43.1672C35.9315 43.6537 35.6582 44.3135 35.6582 45.0014C35.6582 45.6893 35.9315 46.3491 36.4179 46.8356L44.1679 54.5856C44.4093 54.825 44.6956 55.0144 45.0103 55.143C45.3251 55.2715 45.6621 55.3367 46.0021 55.3347C46.3558 55.3235 46.7033 55.2398 47.0233 55.0887C47.3432 54.9376 47.6288 54.7224 47.8621 54.4564L65.9454 33.7897C66.363 33.2713 66.5643 32.6118 66.5074 31.9486C66.4506 31.2853 66.1399 30.6697 65.6402 30.2299C65.1405 29.7902 64.4903 29.5603 63.8252 29.5882C63.1602 29.6161 62.5315 29.8997 62.0704 30.3797L46.0021 48.9797L40.0863 43.1672Z" fill="white"/>
<path d="M69.2509 42.416C68.5658 42.416 67.9087 42.6882 67.4242 43.1727C66.9397 43.6571 66.6676 44.3142 66.6676 44.9993C66.6676 50.4805 64.4902 55.7371 60.6144 59.6129C56.7387 63.4886 51.482 65.666 46.0009 65.666C41.9195 65.6641 37.93 64.4538 34.5355 62.1877C31.141 59.9215 28.4935 56.701 26.9268 52.9322C25.3602 49.1634 24.9445 45.0151 25.7323 41.0104C26.5201 37.0057 28.476 33.3239 31.3534 30.4293C33.2669 28.4903 35.5479 26.9523 38.063 25.9054C40.5781 24.8586 43.2767 24.3239 46.0009 24.3327C47.6528 24.343 49.2987 24.5336 50.9092 24.901C51.2463 25.0053 51.6011 25.0394 51.9518 25.0012C52.3025 24.9631 52.6417 24.8536 52.9485 24.6793C53.2553 24.5051 53.5231 24.2698 53.7355 23.9881C53.9478 23.7064 54.1002 23.3842 54.1833 23.0413C54.2664 22.6984 54.2783 22.3422 54.2184 21.9945C54.1586 21.6468 54.0281 21.3151 53.8351 21.0198C53.6421 20.7245 53.3906 20.4718 53.0963 20.2774C52.8019 20.083 52.4708 19.9509 52.1234 19.8893C50.1165 19.4172 48.0625 19.1746 46.0009 19.166C40.8971 19.1925 35.9155 20.7303 31.6848 23.5852C27.4541 26.4401 24.1639 30.4843 22.2294 35.2073C20.2948 39.9303 19.8027 45.1206 20.815 50.123C21.8274 55.1255 24.2989 59.716 27.9176 63.3152C32.714 68.1138 39.2162 70.8169 46.0009 70.8327C52.8523 70.8327 59.4231 68.111 64.2678 63.2663C69.1125 58.4216 71.8342 51.8508 71.8342 44.9993C71.8342 44.3142 71.5621 43.6571 71.0776 43.1727C70.5931 42.6882 69.936 42.416 69.2509 42.416Z" fill="white"/>
</svg>
