<svg width="18" height="19" viewBox="0 0 18 19" fill="none" xmlns="http://www.w3.org/2000/svg">
<path d="M6.91096 9.33567C6.74104 9.16575 6.51059 9.0703 6.27029 9.0703C6.03 9.0703 5.79954 9.16575 5.62963 9.33567C5.45971 9.50558 5.36426 9.73604 5.36426 9.97633C5.36426 10.2166 5.45971 10.4471 5.62963 10.617L8.33666 13.324C8.42098 13.4077 8.52097 13.4738 8.63091 13.5187C8.74085 13.5636 8.85857 13.5864 8.97732 13.5857C9.10085 13.5818 9.22226 13.5525 9.33402 13.4998C9.44578 13.447 9.5455 13.3718 9.62701 13.2789L15.9434 6.06016C16.0893 5.87909 16.1596 5.6487 16.1397 5.41704C16.1199 5.18539 16.0113 4.97034 15.8368 4.81674C15.6622 4.66314 15.4351 4.58284 15.2028 4.59259C14.9705 4.60234 14.751 4.70138 14.5899 4.86907L8.97732 11.3659L6.91096 9.33567Z" fill="#637381"/>
<path d="M17.0977 9.07422C16.8583 9.07422 16.6288 9.16929 16.4596 9.33851C16.2904 9.50773 16.1953 9.73724 16.1953 9.97656C16.1953 11.8911 15.4348 13.7272 14.081 15.081C12.7272 16.4348 10.8911 17.1953 8.97656 17.1953C7.55094 17.1947 6.15743 16.7719 4.97175 15.9803C3.78607 15.1888 2.86131 14.0639 2.31409 12.7475C1.76687 11.431 1.62169 9.98206 1.89686 8.58324C2.17202 7.18443 2.85521 5.89841 3.86028 4.88734C4.52864 4.21003 5.32539 3.67283 6.20389 3.30717C7.0824 2.94152 8.02501 2.75475 8.97656 2.75781C9.55357 2.76142 10.1285 2.82799 10.691 2.95633C10.8087 2.99274 10.9327 3.00466 11.0552 2.99134C11.1777 2.97802 11.2962 2.93975 11.4033 2.87889C11.5105 2.81802 11.604 2.73586 11.6782 2.63746C11.7524 2.53906 11.8056 2.42651 11.8346 2.30674C11.8636 2.18698 11.8678 2.06254 11.8469 1.9411C11.826 1.81966 11.7804 1.70379 11.713 1.60064C11.6456 1.49749 11.5578 1.40923 11.4549 1.34132C11.3521 1.27341 11.2365 1.22728 11.1151 1.20578C10.4141 1.04087 9.69668 0.956109 8.97656 0.953125C7.19384 0.962386 5.4538 1.49951 3.97604 2.49672C2.49828 3.49393 1.34903 4.90653 0.673306 6.55626C-0.00241603 8.20598 -0.17432 10.0189 0.179287 11.7662C0.532894 13.5136 1.39616 15.117 2.66016 16.3742C4.33553 18.0503 6.6067 18.9945 8.97656 19C11.3697 19 13.6649 18.0493 15.3571 16.3571C17.0493 14.6649 18 12.3697 18 9.97656C18 9.73724 17.9049 9.50773 17.7357 9.33851C17.5665 9.16929 17.337 9.07422 17.0977 9.07422Z" fill="#637381"/>
</svg>
