<svg width="17" height="17" viewBox="0 0 17 17" fill="none" xmlns="http://www.w3.org/2000/svg">
<path d="M12.8963 13.2205H4.10372C0.956744 13.2205 0 12.2637 0 9.11674V4.10372C0 0.956744 0.956744 0 4.10372 0H12.8884C16.0353 0 16.9921 0.956744 16.9921 4.10372V9.10884C17 12.2637 16.0433 13.2205 12.8963 13.2205ZM4.10372 1.18605C1.62093 1.18605 1.18605 1.62093 1.18605 4.10372V9.10884C1.18605 11.5916 1.62093 12.0265 4.10372 12.0265H12.8884C15.3712 12.0265 15.806 11.5916 15.806 9.10884V4.10372C15.806 1.62093 15.3712 1.18605 12.8884 1.18605H4.10372Z" fill="#64748B"/>
<path d="M8.49998 17C8.17579 17 7.90695 16.7312 7.90695 16.407V12.6274C7.90695 12.3033 8.17579 12.0344 8.49998 12.0344C8.82416 12.0344 9.093 12.3033 9.093 12.6274V16.407C9.093 16.7312 8.82416 17 8.49998 17Z" fill="#64748B"/>
<path d="M16.407 9.88356H0.593023C0.268837 9.88356 0 9.61472 0 9.29053C0 8.96635 0.268837 8.69751 0.593023 8.69751H16.407C16.7312 8.69751 17 8.96635 17 9.29053C17 9.61472 16.7312 9.88356 16.407 9.88356Z" fill="#64748B"/>
<path d="M12.0581 17H4.94184C4.61765 17 4.34882 16.7312 4.34882 16.407C4.34882 16.0828 4.61765 15.814 4.94184 15.814H12.0581C12.3823 15.814 12.6511 16.0828 12.6511 16.407C12.6511 16.7312 12.3823 17 12.0581 17Z" fill="#64748B"/>
</svg>
