<svg width="17" height="18" viewBox="0 0 17 18" fill="none" xmlns="http://www.w3.org/2000/svg">
<path d="M11.8246 0.43501C11.4659 0.076293 10.8447 0.32127 10.8447 0.819974V3.87344C10.8447 5.15082 11.9296 6.20948 13.2508 6.20948C14.0819 6.21823 15.2368 6.21823 16.2255 6.21823C16.7242 6.21823 16.9867 5.63203 16.6367 5.28206C15.3768 4.01343 13.1195 1.72989 11.8246 0.43501Z" fill="#DC3545"/>
<path d="M15.937 7.41644H13.4085C11.3349 7.41644 9.64635 5.72785 9.64635 3.65429V1.12577C9.64635 0.644568 9.25264 0.250854 8.77143 0.250854H5.06178C2.36703 0.250854 0.188477 2.00069 0.188477 5.12416V12.8759C0.188477 15.9994 2.36703 17.7492 5.06178 17.7492H11.9386C14.6334 17.7492 16.8119 15.9994 16.8119 12.8759V8.29136C16.8119 7.81016 16.4182 7.41644 15.937 7.41644ZM8.06275 14.0308H4.56307C4.20436 14.0308 3.90688 13.7334 3.90688 13.3746C3.90688 13.0159 4.20436 12.7185 4.56307 12.7185H8.06275C8.42147 12.7185 8.71894 13.0159 8.71894 13.3746C8.71894 13.7334 8.42147 14.0308 8.06275 14.0308ZM9.81259 10.5312H4.56307C4.20436 10.5312 3.90688 10.2337 3.90688 9.87497C3.90688 9.51625 4.20436 9.21878 4.56307 9.21878H9.81259C10.1713 9.21878 10.4688 9.51625 10.4688 9.87497C10.4688 10.2337 10.1713 10.5312 9.81259 10.5312Z" fill="#DC3545"/>
</svg>
