<svg width="46" height="46" viewBox="0 0 46 46" fill="none" xmlns="http://www.w3.org/2000/svg">
<rect x="0.5" y="0.5" width="45" height="45" rx="7.5" fill="white" stroke="#E7E7E7"/>
<path fill-rule="evenodd" clip-rule="evenodd" d="M18.0503 15.0503C19.363 13.7375 21.1435 13 23 13C24.8565 13 26.637 13.7375 27.9498 15.0503C29.2625 16.363 30 18.1435 30 20C30 23.3527 30.7171 25.4346 31.3779 26.6461C31.7097 27.2544 32.0328 27.6535 32.2572 27.8904C32.3697 28.0091 32.4581 28.0878 32.5113 28.1322C32.5379 28.1544 32.5558 28.168 32.5635 28.1737C32.5647 28.1746 32.5656 28.1753 32.5663 28.1758C32.9248 28.4221 33.0835 28.8725 32.9571 29.2898C32.8294 29.7115 32.4407 30 32 30H14C13.5593 30 13.1706 29.7115 13.0429 29.2898C12.9166 28.8725 13.0752 28.4221 13.4337 28.1758C13.4344 28.1753 13.4354 28.1746 13.4366 28.1737C13.4443 28.168 13.4621 28.1544 13.4887 28.1322C13.542 28.0878 13.6303 28.0091 13.7428 27.8904C13.9672 27.6535 14.2903 27.2544 14.6221 26.6461C15.2829 25.4346 16 23.3527 16 20C16 18.1435 16.7375 16.363 18.0503 15.0503ZM13.4438 28.169C13.4439 28.1689 13.444 28.1688 13.4441 28.1688C13.444 28.1688 13.444 28.1688 13.444 28.1688L13.4438 28.169ZM16.1493 28H29.8507C29.7746 27.8753 29.6982 27.7434 29.6221 27.6039C28.7829 26.0654 28 23.6473 28 20C28 18.6739 27.4732 17.4021 26.5356 16.4645C25.5979 15.5268 24.3261 15 23 15C21.6739 15 20.4022 15.5268 19.4645 16.4645C18.5268 17.4021 18 18.6739 18 20C18 23.6473 17.2171 26.0654 16.3779 27.6039C16.3018 27.7434 16.2254 27.8753 16.1493 28Z" fill="#637381"/>
<path fill-rule="evenodd" clip-rule="evenodd" d="M20.7682 32.1352C21.246 31.858 21.8579 32.0207 22.135 32.4984C22.2229 32.6499 22.3491 32.7757 22.5009 32.8632C22.6527 32.9506 22.8248 32.9966 23 32.9966C23.1752 32.9966 23.3473 32.9506 23.4991 32.8632C23.6509 32.7757 23.7771 32.6499 23.865 32.4984C24.1421 32.0207 24.754 31.858 25.2318 32.1352C25.7095 32.4123 25.8721 33.0242 25.595 33.5019C25.3313 33.9566 24.9528 34.3339 24.4973 34.5962C24.0419 34.8586 23.5256 34.9966 23 34.9966C22.4744 34.9966 21.9581 34.8586 21.5027 34.5962C21.0472 34.3339 20.6687 33.9566 20.405 33.5019C20.1279 33.0242 20.2905 32.4123 20.7682 32.1352Z" fill="#637381"/>
</svg>
