<svg width="60" height="62" viewBox="0 0 60 62" fill="none" xmlns="http://www.w3.org/2000/svg">
<ellipse cx="29.6222" cy="31" rx="29.6222" ry="31" fill="#00C3F9"/>
<path fill-rule="evenodd" clip-rule="evenodd" d="M20.8848 18.8182C21.1179 18.5312 21.4837 18.3623 21.8722 18.3623H36.6833C37.0718 18.3623 37.4376 18.5312 37.6707 18.8182L41.3735 23.3768C41.5337 23.5741 41.6204 23.814 41.6204 24.0606V40.0158C41.6204 40.9226 41.2303 41.7922 40.5358 42.4334C39.8414 43.0746 38.8996 43.4348 37.9176 43.4348H20.638C19.6559 43.4348 18.7141 43.0746 18.0197 42.4334C17.3253 41.7922 16.9352 40.9226 16.9352 40.0158V24.0606C16.9352 23.814 17.0218 23.5741 17.182 23.3768L20.8848 18.8182ZM22.4893 20.6416L19.4037 24.4405V40.0158C19.4037 40.3181 19.5337 40.608 19.7652 40.8217C19.9967 41.0354 20.3106 41.1555 20.638 41.1555H37.9176C38.2449 41.1555 38.5589 41.0354 38.7903 40.8217C39.0218 40.608 39.1518 40.3181 39.1518 40.0158V24.4405L36.0662 20.6416H22.4893Z" fill="white"/>
<path fill-rule="evenodd" clip-rule="evenodd" d="M16.9352 24.0606C16.9352 23.4311 17.4878 22.9209 18.1694 22.9209H40.3861C41.0678 22.9209 41.6204 23.4311 41.6204 24.0606C41.6204 24.69 41.0678 25.2002 40.3861 25.2002H18.1694C17.4878 25.2002 16.9352 24.69 16.9352 24.0606Z" fill="white"/>
<path fill-rule="evenodd" clip-rule="evenodd" d="M24.3408 27.4795C25.0224 27.4795 25.575 27.9897 25.575 28.6192C25.575 29.5259 25.9651 30.3956 26.6595 31.0367C27.3539 31.6779 28.2958 32.0381 29.2778 32.0381C30.2598 32.0381 31.2017 31.6779 31.8961 31.0367C32.5905 30.3956 32.9806 29.5259 32.9806 28.6192C32.9806 27.9897 33.5332 27.4795 34.2148 27.4795C34.8965 27.4795 35.4491 27.9897 35.4491 28.6192C35.4491 30.1304 34.7989 31.5798 33.6416 32.6485C32.4842 33.7171 30.9145 34.3174 29.2778 34.3174C27.6411 34.3174 26.0714 33.7171 24.914 32.6485C23.7567 31.5798 23.1065 30.1304 23.1065 28.6192C23.1065 27.9897 23.6591 27.4795 24.3408 27.4795Z" fill="white"/>
</svg>
