<svg width="47" height="47" viewBox="0 0 47 47" fill="none" xmlns="http://www.w3.org/2000/svg">
<rect x="0.367432" y="0.286621" width="46.5812" height="46.5812" rx="23.2906" fill="#FFEFB9" fill-opacity="0.6"/>
<path fill-rule="evenodd" clip-rule="evenodd" d="M16.2961 19.8484C16.8608 19.8484 17.3186 20.2857 17.3186 20.8251V30.0061H29.9978V20.8251C29.9978 20.2857 30.4556 19.8484 31.0203 19.8484C31.585 19.8484 32.0428 20.2857 32.0428 20.8251V30.9828C32.0428 31.5222 31.585 31.9595 31.0203 31.9595H16.2961C15.7314 31.9595 15.2736 31.5222 15.2736 30.9828V20.8251C15.2736 20.2857 15.7314 19.8484 16.2961 19.8484Z" fill="#FFAC0B"/>
<path fill-rule="evenodd" clip-rule="evenodd" d="M13.4103 16.2773C13.4103 15.677 13.8785 15.1904 14.456 15.1904H32.8603C33.4378 15.1904 33.906 15.677 33.906 16.2773V20.6249C33.906 21.2252 33.4378 21.7118 32.8603 21.7118H14.456C13.8785 21.7118 13.4103 21.2252 13.4103 20.6249V16.2773ZM15.5017 17.3642V19.538H31.8146V17.3642H15.5017Z" fill="#FFAC0B"/>
<path fill-rule="evenodd" clip-rule="evenodd" d="M21.7949 23.5749C21.7949 23.0604 22.1158 22.6433 22.5116 22.6433H24.8048C25.2006 22.6433 25.5214 23.0604 25.5214 23.5749C25.5214 24.0895 25.2006 24.5066 24.8048 24.5066H22.5116C22.1158 24.5066 21.7949 24.0895 21.7949 23.5749Z" fill="#FFAC0B"/>
</svg>
