<svg width="86" height="90" viewBox="0 0 86 90" fill="none" xmlns="http://www.w3.org/2000/svg">
<ellipse cx="43" cy="45" rx="43" ry="45" fill="#00C3F9"/>
<path fill-rule="evenodd" clip-rule="evenodd" d="M30.3166 27.316C30.655 26.8995 31.186 26.6543 31.75 26.6543H53.25C53.8139 26.6543 54.3449 26.8995 54.6833 27.316L60.0583 33.9334C60.2909 34.2198 60.4166 34.5681 60.4166 34.926V58.0868C60.4166 59.4031 59.8504 60.6655 58.8423 61.5962C57.8343 62.527 56.4672 63.0499 55.0416 63.0499H29.9583C28.5328 63.0499 27.1656 62.527 26.1576 61.5962C25.1496 60.6655 24.5833 59.4031 24.5833 58.0868V34.926C24.5833 34.5681 24.709 34.2198 24.9416 33.9334L30.3166 27.316ZM32.6458 29.963L28.1666 35.4775V58.0868C28.1666 58.5256 28.3554 58.9464 28.6914 59.2566C29.0274 59.5669 29.4831 59.7412 29.9583 59.7412H55.0416C55.5168 59.7412 55.9725 59.5669 56.3085 59.2566C56.6446 58.9464 56.8333 58.5256 56.8333 58.0868V35.4775L52.3541 29.963H32.6458Z" fill="white"/>
<path fill-rule="evenodd" clip-rule="evenodd" d="M24.5833 34.9258C24.5833 34.0122 25.3855 33.2715 26.375 33.2715H58.625C59.6145 33.2715 60.4166 34.0122 60.4166 34.9258C60.4166 35.8395 59.6145 36.5802 58.625 36.5802H26.375C25.3855 36.5802 24.5833 35.8395 24.5833 34.9258Z" fill="white"/>
<path fill-rule="evenodd" clip-rule="evenodd" d="M35.3334 39.8887C36.3229 39.8887 37.125 40.6293 37.125 41.543C37.125 42.8593 37.6913 44.1217 38.6993 45.0524C39.7073 45.9832 41.0745 46.506 42.5 46.506C43.9256 46.506 45.2927 45.9832 46.3007 45.0524C47.3087 44.1217 47.875 42.8593 47.875 41.543C47.875 40.6293 48.6772 39.8887 49.6667 39.8887C50.6562 39.8887 51.4584 40.6293 51.4584 41.543C51.4584 43.7368 50.5145 45.8408 48.8345 47.392C47.1545 48.9432 44.8759 49.8147 42.5 49.8147C40.1241 49.8147 37.8455 48.9432 36.1655 47.392C34.4855 45.8408 33.5417 43.7368 33.5417 41.543C33.5417 40.6293 34.3438 39.8887 35.3334 39.8887Z" fill="white"/>
</svg>
