<svg width="47" height="47" viewBox="0 0 47 47" fill="none" xmlns="http://www.w3.org/2000/svg">
<rect x="0.290527" y="0.286621" width="46.5812" height="46.5812" rx="23.2906" fill="#EFF2F7"/>
<path fill-rule="evenodd" clip-rule="evenodd" d="M16.2193 19.8484C16.784 19.8484 17.2418 20.2857 17.2418 20.8251V30.0061H29.921V20.8251C29.921 20.2857 30.3788 19.8484 30.9435 19.8484C31.5082 19.8484 31.966 20.2857 31.966 20.8251V30.9828C31.966 31.5222 31.5082 31.9595 30.9435 31.9595H16.2193C15.6546 31.9595 15.1968 31.5222 15.1968 30.9828V20.8251C15.1968 20.2857 15.6546 19.8484 16.2193 19.8484Z" fill="#3056D3"/>
<path fill-rule="evenodd" clip-rule="evenodd" d="M13.3335 16.2773C13.3335 15.677 13.8017 15.1904 14.3792 15.1904H32.7835C33.361 15.1904 33.8292 15.677 33.8292 16.2773V20.6249C33.8292 21.2252 33.361 21.7118 32.7835 21.7118H14.3792C13.8017 21.7118 13.3335 21.2252 13.3335 20.6249V16.2773ZM15.4249 17.3642V19.538H31.7378V17.3642H15.4249Z" fill="#3056D3"/>
<path fill-rule="evenodd" clip-rule="evenodd" d="M21.718 23.5749C21.718 23.0604 22.0389 22.6433 22.4347 22.6433H24.7279C25.1237 22.6433 25.4445 23.0604 25.4445 23.5749C25.4445 24.0895 25.1237 24.5066 24.7279 24.5066H22.4347C22.0389 24.5066 21.718 24.0895 21.718 23.5749Z" fill="#3056D3"/>
</svg>
