<svg width="60" height="63" viewBox="0 0 60 63" fill="none" xmlns="http://www.w3.org/2000/svg">
<ellipse cx="30" cy="31.3953" rx="30" ry="31.3953" fill="#00C3F9"/>
<path fill-rule="evenodd" clip-rule="evenodd" d="M27.3157 16.1626C27.98 15.758 28.7333 15.5449 29.5001 15.5449C30.2669 15.5449 31.0202 15.758 31.6845 16.1627C31.6855 16.1633 31.6866 16.1639 31.6876 16.1646L41.8959 22.3312C42.5603 22.7367 43.1122 23.3198 43.4962 24.022C43.8801 24.7242 44.0826 25.5208 44.0834 26.3318V38.6683C44.0826 39.4794 43.8801 40.276 43.4962 40.9782C43.1122 41.6803 42.5603 42.2634 41.8959 42.669L41.8903 42.6724L31.6876 48.8356C31.6867 48.8362 31.6858 48.8367 31.685 48.8372C31.0205 49.2421 30.267 49.4553 29.5001 49.4553C28.7331 49.4553 27.9797 49.2421 27.3153 48.8373C27.3144 48.8367 27.3135 48.8362 27.3126 48.8356L17.1099 42.6724L17.1042 42.669C16.4398 42.2634 15.888 41.6803 15.504 40.9782C15.1201 40.276 14.9175 39.4794 14.9167 38.6683V26.3318C14.9175 25.5208 15.1201 24.7242 15.504 24.022C15.888 23.3198 16.4398 22.7367 17.1042 22.3312L17.1099 22.3278L27.3157 16.1626ZM29.5001 18.6283C29.2441 18.6283 28.9926 18.6995 28.7709 18.8348L28.7653 18.8382L18.5626 25.0015C18.5618 25.0019 18.561 25.0024 18.5603 25.0029C18.3398 25.138 18.1567 25.3318 18.0292 25.5651C17.9013 25.7989 17.8338 26.0642 17.8334 26.3343V38.6658C17.8338 38.936 17.9013 39.2012 18.0292 39.4351C18.1567 39.6684 18.3398 39.8622 18.5603 39.9973C18.561 39.9978 18.5618 39.9983 18.5626 39.9987L28.7709 46.1654C28.9926 46.3007 29.2441 46.3719 29.5001 46.3719C29.7561 46.3719 30.0075 46.3007 30.2292 46.1654L30.2349 46.162L40.4376 39.9987C40.4384 39.9983 40.4391 39.9978 40.4399 39.9973C40.6603 39.8622 40.8435 39.6684 40.971 39.4351C41.099 39.2011 41.1665 38.9355 41.1667 38.6652V26.335C41.1665 26.0647 41.099 25.7991 40.971 25.5651C40.8435 25.3318 40.6603 25.138 40.4399 25.0029C40.4391 25.0024 40.4384 25.0019 40.4376 25.0015L30.2292 18.8348C30.0075 18.6995 29.7561 18.6283 29.5001 18.6283Z" fill="white"/>
<path fill-rule="evenodd" clip-rule="evenodd" d="M15.5063 23.9585C15.9096 23.2214 16.8017 22.9696 17.4989 23.3959L29.4999 30.7348L41.5009 23.3959C42.1981 22.9696 43.0902 23.2214 43.4935 23.9585C43.8968 24.6955 43.6585 25.6385 42.9614 26.0649L30.2301 33.8503C29.7784 34.1265 29.2214 34.1265 28.7697 33.8503L16.0384 26.0649C15.3412 25.6385 15.103 24.6955 15.5063 23.9585Z" fill="white"/>
<path fill-rule="evenodd" clip-rule="evenodd" d="M29.5001 30.958C30.3055 30.958 30.9584 31.6482 30.9584 32.4997V48.0397C30.9584 48.8911 30.3055 49.5813 29.5001 49.5813C28.6947 49.5813 28.0417 48.8911 28.0417 48.0397V32.4997C28.0417 31.6482 28.6947 30.958 29.5001 30.958Z" fill="white"/>
</svg>
