<svg width="27" height="27" viewBox="0 0 27 27" fill="none" xmlns="http://www.w3.org/2000/svg">
<path d="M22.8352 6.9796H17.3983V5.16366C17.3727 4.46753 17.0723 3.80992 16.5627 3.33499C16.0531 2.86005 15.376 2.60654 14.6798 2.63004H11.4176C10.7214 2.60654 10.0443 2.86005 9.53472 3.33499C9.02514 3.80992 8.72465 4.46753 8.69914 5.16366V6.9796H3.26219C2.9738 6.9796 2.69722 7.09416 2.49329 7.29809C2.28937 7.50201 2.1748 7.77859 2.1748 8.06699C2.1748 8.35538 2.28937 8.63196 2.49329 8.83589C2.69722 9.03981 2.9738 9.15438 3.26219 9.15438H4.34958V21.1157C4.34958 21.9808 4.69328 22.8106 5.30505 23.4224C5.91683 24.0341 6.74657 24.3778 7.61175 24.3778H18.4856C19.3508 24.3778 20.1806 24.0341 20.7924 23.4224C21.4041 22.8106 21.7478 21.9808 21.7478 21.1157V9.15438H22.8352C23.1236 9.15438 23.4002 9.03981 23.6041 8.83589C23.808 8.63196 23.9226 8.35538 23.9226 8.06699C23.9226 7.77859 23.808 7.50201 23.6041 7.29809C23.4002 7.09416 23.1236 6.9796 22.8352 6.9796ZM10.8739 5.16366C10.8739 4.98967 11.1023 4.80482 11.4176 4.80482H14.6798C14.9951 4.80482 15.2235 4.98967 15.2235 5.16366V6.9796H10.8739V5.16366ZM19.573 21.1157C19.573 21.4041 19.4585 21.6806 19.2545 21.8846C19.0506 22.0885 18.774 22.2031 18.4856 22.2031H7.61175C7.32336 22.2031 7.04678 22.0885 6.84285 21.8846C6.63893 21.6806 6.52436 21.4041 6.52436 21.1157V9.15438H19.573V21.1157Z" fill="#DC3545"/>
<path d="M9.78661 18.9408C10.075 18.9408 10.3516 18.8263 10.5555 18.6224C10.7594 18.4184 10.874 18.1418 10.874 17.8535V13.5039C10.874 13.2155 10.7594 12.9389 10.5555 12.735C10.3516 12.5311 10.075 12.4165 9.78661 12.4165C9.49821 12.4165 9.22163 12.5311 9.01771 12.735C8.81378 12.9389 8.69922 13.2155 8.69922 13.5039V17.8535C8.69922 18.1418 8.81378 18.4184 9.01771 18.6224C9.22163 18.8263 9.49821 18.9408 9.78661 18.9408Z" fill="#DC3545"/>
<path d="M16.311 18.9408C16.5994 18.9408 16.876 18.8263 17.0799 18.6224C17.2838 18.4184 17.3984 18.1418 17.3984 17.8535V13.5039C17.3984 13.2155 17.2838 12.9389 17.0799 12.735C16.876 12.5311 16.5994 12.4165 16.311 12.4165C16.0226 12.4165 15.746 12.5311 15.5421 12.735C15.3382 12.9389 15.2236 13.2155 15.2236 13.5039V17.8535C15.2236 18.1418 15.3382 18.4184 15.5421 18.6224C15.746 18.8263 16.0226 18.9408 16.311 18.9408Z" fill="#DC3545"/>
</svg>
