<svg width="48" height="47" viewBox="0 0 48 47" fill="none" xmlns="http://www.w3.org/2000/svg">
<rect x="0.828735" y="0.286621" width="46.5812" height="46.5812" rx="23.2906" fill="#FFEFB9" fill-opacity="0.6"/>
<g clip-path="url(#clip0_130_2333)">
<path fill-rule="evenodd" clip-rule="evenodd" d="M14.2029 26.7012C15.1034 25.8008 16.3247 25.2949 17.5981 25.2949H25.0511C26.3245 25.2949 27.5458 25.8008 28.4462 26.7012C29.3466 27.6017 29.8525 28.8229 29.8525 30.0964V31.9596C29.8525 32.5533 29.3712 33.0346 28.7776 33.0346C28.1839 33.0346 27.7026 32.5533 27.7026 31.9596V30.0964C27.7026 29.3931 27.4233 28.7187 26.926 28.2214C26.4287 27.7242 25.7543 27.4448 25.0511 27.4448H17.5981C16.8948 27.4448 16.2204 27.7242 15.7232 28.2214C15.2259 28.7187 14.9465 29.3931 14.9465 30.0964V31.9596C14.9465 32.5533 14.4653 33.0346 13.8716 33.0346C13.2779 33.0346 12.7966 32.5533 12.7966 31.9596V30.0964C12.7966 28.8229 13.3025 27.6017 14.2029 26.7012Z" fill="#FFAC0B"/>
<path fill-rule="evenodd" clip-rule="evenodd" d="M21.3245 16.2654C19.8601 16.2654 18.673 17.4525 18.673 18.9169C18.673 20.3813 19.8601 21.5685 21.3245 21.5685C22.7889 21.5685 23.9761 20.3813 23.9761 18.9169C23.9761 17.4525 22.7889 16.2654 21.3245 16.2654ZM16.5231 18.9169C16.5231 16.2652 18.6728 14.1155 21.3245 14.1155C23.9763 14.1155 26.126 16.2652 26.126 18.9169C26.126 21.5687 23.9763 23.7184 21.3245 23.7184C18.6728 23.7184 16.5231 21.5687 16.5231 18.9169Z" fill="#FFAC0B"/>
<path fill-rule="evenodd" clip-rule="evenodd" d="M30.5316 26.2222C30.68 25.6474 31.2663 25.3017 31.8411 25.4502C32.8712 25.7161 33.7838 26.3167 34.4356 27.1575C35.0873 27.9983 35.4414 29.0317 35.4422 30.0956V31.9596C35.4422 32.5533 34.961 33.0346 34.3673 33.0346C33.7736 33.0346 33.2923 32.5533 33.2923 31.9596V30.0967C33.2918 29.5094 33.0962 28.9388 32.7364 28.4746C32.3765 28.0103 31.8725 27.6787 31.3037 27.5318C30.7288 27.3834 30.3832 26.7971 30.5316 26.2222Z" fill="#FFAC0B"/>
<path fill-rule="evenodd" clip-rule="evenodd" d="M26.8046 15.0449C26.9519 14.4698 27.5375 14.1229 28.1126 14.2702C29.1454 14.5346 30.0608 15.1353 30.7145 15.9775C31.3683 16.8196 31.7231 17.8555 31.7231 18.9216C31.7231 19.9877 31.3683 21.0235 30.7145 21.8657C30.0608 22.7079 29.1454 23.3085 28.1126 23.573C27.5375 23.7202 26.9519 23.3734 26.8046 22.7983C26.6573 22.2231 27.0042 21.6375 27.5793 21.4903C28.1497 21.3442 28.6552 21.0125 29.0162 20.5474C29.3772 20.0823 29.5732 19.5103 29.5732 18.9216C29.5732 18.3328 29.3772 17.7608 29.0162 17.2957C28.6552 16.8306 28.1497 16.4989 27.5793 16.3529C27.0042 16.2056 26.6573 15.62 26.8046 15.0449Z" fill="#FFAC0B"/>
</g>
<defs>
<clipPath id="clip0_130_2333">
<rect width="22.359" height="22.359" fill="white" transform="translate(12.9399 12.3955)"/>
</clipPath>
</defs>
</svg>
